<svg width="220" height="206" viewBox="0 0 220 206" fill="none" xmlns="http://www.w3.org/2000/svg">
<path d="M173.341 62.5181C175.062 62.5181 176.381 61.8211 177.298 60.4272C178.216 59.0161 178.8 57.3784 179.056 55.521C179.33 53.6635 179.469 51.8542 179.469 50.0997C179.469 48.2732 179.33 46.4432 179.056 44.5995C178.8 42.7593 178.216 41.149 177.298 39.7723C176.399 38.3955 175.08 37.7054 173.341 37.7054C171.601 37.7054 170.271 38.3955 169.357 39.7723C168.459 41.149 167.874 42.7593 167.596 44.5995C167.34 46.4432 167.212 48.2732 167.212 50.0997C167.212 53.1966 167.614 56.0463 168.422 58.6453C169.23 61.2272 170.867 62.5181 173.341 62.5181ZM173.341 69.7727C169.789 69.7727 166.891 68.7908 164.658 66.8304C162.422 64.8665 160.821 62.3979 159.849 59.4212C158.895 56.4411 158.42 53.3339 158.42 50.0997C158.42 47.741 158.676 45.4338 159.187 43.1816C159.703 40.9087 160.543 38.8075 161.716 36.8814C162.889 34.9347 164.439 33.3863 166.361 32.233C168.301 31.0626 170.629 30.4775 173.341 30.4775C176.07 30.4775 178.387 31.0626 180.295 32.233C182.217 33.3863 183.756 34.9278 184.91 36.8539C186.083 38.7835 186.924 40.8915 187.439 43.1816C187.969 45.4682 188.236 47.7754 188.236 50.0997C188.236 52.4241 187.969 54.7382 187.439 57.0454C186.924 59.332 186.091 61.4435 184.94 63.3696C183.785 65.2991 182.235 66.8475 180.295 68.0183C178.351 69.1891 176.034 69.7727 173.341 69.7727ZM141.025 62.5181C142.747 62.5181 144.066 61.8211 144.983 60.4272C145.897 59.0161 146.485 57.3784 146.741 55.521C147.015 53.6635 147.154 51.8542 147.154 50.0997C147.154 48.2732 147.015 46.4432 146.741 44.5995C146.485 42.7593 145.897 41.149 144.983 39.7723C144.084 38.3955 142.765 37.7054 141.025 37.7054C139.286 37.7054 137.956 38.3955 137.038 39.7723C136.143 41.149 135.555 42.7593 135.281 44.5995C135.025 46.4432 134.897 48.2732 134.897 50.0997C134.897 53.1966 135.299 56.0463 136.107 58.6453C136.911 61.2272 138.551 62.5181 141.025 62.5181ZM141.025 69.7727C137.47 69.7727 134.575 68.7908 132.343 66.8304C130.106 64.8665 128.502 62.3979 127.534 59.4212C126.58 56.4411 126.105 53.3339 126.105 50.0997C126.105 47.741 126.361 45.4338 126.872 43.1816C127.384 40.9087 128.228 38.8075 129.401 36.8814C130.574 34.9347 132.12 33.3863 134.046 32.233C135.986 31.0626 138.314 30.4775 141.025 30.4775C143.755 30.4775 146.072 31.0626 147.976 32.233C149.902 33.3863 151.44 34.9278 152.595 36.8539C153.768 38.7835 154.609 40.8915 155.12 43.1816C155.654 45.4682 155.92 47.7754 155.92 50.0997C155.92 52.4241 155.654 54.7382 155.12 57.0454C154.609 59.332 153.775 61.4435 152.621 63.3696C151.466 65.2991 149.92 66.8475 147.976 68.0183C146.035 69.1891 143.719 69.7727 141.025 69.7727ZM112.584 65.2545V38.4539H109.258C107.994 38.4539 107.04 38.1037 106.401 37.3964C105.757 36.6926 105.439 35.8308 105.439 34.8145C105.439 33.8168 105.776 32.9475 106.455 32.2073C107.15 31.467 108.085 31.0973 109.258 31.0973H117.254C118.043 31.0973 118.719 31.2693 119.289 31.6136C119.856 31.9405 120.287 32.3882 120.579 32.9561C120.872 33.5068 121.018 34.1608 121.018 34.9175V65.2545C121.018 66.5969 120.634 67.6303 119.867 68.3513C119.096 69.0758 118.08 69.4363 116.815 69.4363C115.569 69.4363 114.553 69.0655 113.764 68.3273C112.978 67.5857 112.584 66.5626 112.584 65.2545ZM91.7539 65.2545V38.4539H88.4285C87.1641 38.4539 86.2103 38.1037 85.5708 37.3964C84.9276 36.6926 84.6097 35.8308 84.6097 34.8145C84.6097 33.8168 84.9459 32.9475 85.6256 32.2073C86.3199 31.467 87.2554 31.0973 88.4285 31.0973H96.4242C97.2135 31.0973 97.8895 31.2693 98.4596 31.6136C99.026 31.9405 99.4573 32.3882 99.7496 32.9561C100.042 33.5068 100.188 34.1608 100.188 34.9175V65.2545C100.188 66.5969 99.8044 67.6303 99.037 68.3513C98.2659 69.0758 97.25 69.4363 95.9856 69.4363C94.7395 69.4363 93.7236 69.0655 92.9343 68.3273C92.1486 67.5857 91.7539 66.5626 91.7539 65.2545ZM67.0469 62.5181C68.7718 62.5181 70.091 61.8211 71.0046 60.4272C71.9218 59.0161 72.5065 57.3784 72.766 55.521C73.04 53.6635 73.1752 51.8542 73.1752 50.0997C73.1752 48.2732 73.04 46.4432 72.766 44.5995C72.5065 42.7593 71.9218 41.149 71.0046 39.7723C70.1093 38.3955 68.79 37.7054 67.0469 37.7054C65.3075 37.7054 63.9809 38.3955 63.0637 39.7723C62.1647 41.149 61.58 42.7593 61.306 44.5995C61.0501 46.4432 60.9186 48.2732 60.9186 50.0997C60.9186 53.1966 61.3242 56.0463 62.1282 58.6453C62.9358 61.2272 64.5766 62.5181 67.0469 62.5181ZM67.0469 69.7727C63.4949 69.7727 60.6007 68.7908 58.3642 66.8304C56.1314 64.8665 54.5272 62.3979 53.5551 59.4212C52.6013 56.4411 52.1262 53.3339 52.1262 50.0997C52.1262 47.741 52.3821 45.4338 52.8973 43.1816C53.4089 40.9087 54.2531 38.8075 55.4261 36.8814C56.5955 34.9347 58.1449 33.3863 60.0671 32.233C62.0112 31.0626 64.3354 30.4775 67.0469 30.4775C69.7767 30.4775 72.0972 31.0626 74.0011 32.233C75.9233 33.3863 77.4618 34.9278 78.6166 36.8539C79.7896 38.7835 80.6338 40.8915 81.1454 43.1816C81.6752 45.4682 81.942 47.7754 81.942 50.0997C81.942 52.4241 81.6752 54.7382 81.1454 57.0454C80.6338 59.332 79.8006 61.4435 78.6458 63.3696C77.491 65.2991 75.9416 66.8475 74.0011 68.0183C72.0607 69.1891 69.7402 69.7727 67.0469 69.7727ZM38.6052 65.2545V38.4539H35.2816C34.0175 38.4539 33.0648 38.1037 32.4235 37.3964C31.7825 36.6926 31.4617 35.8308 31.4617 34.8145C31.4617 33.8168 31.8008 32.9475 32.4787 32.2073C33.1748 31.467 34.1089 31.0973 35.2816 31.0973H43.2791C44.0648 31.0973 44.7445 31.2693 45.3109 31.6136C45.881 31.9405 46.3085 32.3882 46.6045 32.9561C46.8969 33.5068 47.0431 34.1608 47.0431 34.9175V65.2545C47.0431 66.5969 46.6594 67.6303 45.8883 68.3513C45.1209 69.0758 44.1013 69.4363 42.8369 69.4363C41.5944 69.4363 40.5749 69.0655 39.7892 68.3273C38.9999 67.5857 38.6052 66.5626 38.6052 65.2545ZM173.341 115.395C175.062 115.395 176.381 114.694 177.298 113.301C178.216 111.889 178.8 110.255 179.056 108.398C179.33 106.537 179.469 104.731 179.469 102.973C179.469 101.15 179.33 99.3166 179.056 97.4763C178.8 95.6326 178.216 94.0258 177.298 92.649C176.399 91.2688 175.08 90.5821 173.341 90.5821C171.601 90.5821 170.271 91.2688 169.357 92.649C168.459 94.0258 167.874 95.6326 167.596 97.4763C167.34 99.3166 167.212 101.15 167.212 102.973C167.212 106.073 167.614 108.923 168.422 111.522C169.23 114.104 170.867 115.395 173.341 115.395ZM173.341 122.649C169.789 122.649 166.891 121.668 164.658 119.704C162.422 117.743 160.821 115.271 159.849 112.295C158.895 109.318 158.42 106.211 158.42 102.973C158.42 100.618 158.676 98.3106 159.187 96.0549C159.703 93.782 160.543 91.6843 161.716 89.7547C162.889 87.8115 164.439 86.263 166.361 85.1094C168.301 83.9387 170.629 83.3516 173.341 83.3516C176.07 83.3516 178.387 83.9387 180.295 85.1094C182.217 86.263 183.756 87.8012 184.91 89.7307C186.083 91.6568 186.924 93.7649 187.439 96.0549C187.969 98.3449 188.236 100.652 188.236 102.973C188.236 105.297 187.969 107.615 187.439 109.919C186.924 112.209 186.091 114.317 184.94 116.246C183.785 118.172 182.235 119.721 180.295 120.892C178.351 122.062 176.034 122.649 173.341 122.649ZM144.899 118.131V91.3306H141.574C140.309 91.3306 139.359 90.977 138.716 90.2731C138.076 89.5659 137.755 88.7076 137.755 87.6913C137.755 86.6922 138.095 85.8236 138.771 85.082C139.469 84.3438 140.4 83.973 141.574 83.973H149.569C150.359 83.973 151.038 84.1447 151.605 84.488C152.171 84.8176 152.602 85.2639 152.895 85.8304C153.191 86.3832 153.337 87.0355 153.337 87.7943V118.131C153.337 119.474 152.949 120.504 152.182 121.228C151.411 121.953 150.395 122.313 149.131 122.313C147.885 122.313 146.869 121.942 146.079 121.201C145.294 120.462 144.899 119.439 144.899 118.131ZM124.069 118.131V91.3306H120.744C119.479 91.3306 118.529 90.977 117.886 90.2731C117.247 89.5659 116.925 88.7076 116.925 87.6913C116.925 86.6922 117.265 85.8236 117.941 85.082C118.639 84.3438 119.571 83.973 120.744 83.973H128.739C129.529 83.973 130.209 84.1447 130.775 84.488C131.341 84.8176 131.773 85.2639 132.065 85.8304C132.361 86.3832 132.507 87.0355 132.507 87.7943V118.131C132.507 119.474 132.12 120.504 131.352 121.228C130.581 121.953 129.565 122.313 128.301 122.313C127.055 122.313 126.039 121.942 125.25 121.201C124.464 120.462 124.069 119.439 124.069 118.131ZM99.3659 115.395C101.087 115.395 102.406 114.694 103.324 113.301C104.237 111.889 104.825 110.255 105.081 108.398C105.355 106.537 105.494 104.731 105.494 102.973C105.494 101.15 105.355 99.3166 105.081 97.4763C104.825 95.6326 104.237 94.0258 103.324 92.649C102.425 91.2688 101.105 90.5821 99.3659 90.5821C97.6228 90.5821 96.2963 91.2688 95.379 92.649C94.4837 94.0258 93.8954 95.6326 93.6213 97.4763C93.3655 99.3166 93.2376 101.15 93.2376 102.973C93.2376 106.073 93.6396 108.923 94.4472 111.522C95.2511 114.104 96.8919 115.395 99.3659 115.395ZM99.3659 122.649C95.8102 122.649 92.916 121.668 90.6795 119.704C88.4467 117.743 86.8425 115.271 85.8741 112.295C84.9203 109.318 84.4416 106.211 84.4416 102.973C84.4416 100.618 84.701 98.3106 85.2126 96.0549C85.7243 93.782 86.5684 91.6843 87.7414 89.7547C88.9145 87.8115 90.4603 86.263 92.3861 85.1094C94.3266 83.9387 96.6544 83.3516 99.3659 83.3516C102.096 83.3516 104.413 83.9387 106.316 85.1094C108.242 86.263 109.781 87.8012 110.936 89.7307C112.105 91.6568 112.949 93.7649 113.461 96.0549C113.994 98.3449 114.257 100.652 114.257 102.973C114.257 105.297 113.994 107.615 113.461 109.919C112.949 112.209 112.116 114.317 110.961 116.246C109.806 118.172 108.261 119.721 106.316 120.892C104.376 122.062 102.059 122.649 99.3659 122.649ZM70.9242 118.131V91.3306H67.5987C66.3343 91.3306 65.3805 90.977 64.741 90.2731C64.0979 89.5659 63.7799 88.7076 63.7799 87.6913C63.7799 86.6922 64.1161 85.8236 64.7958 85.082C65.4902 84.3438 66.4257 83.973 67.5987 83.973H75.5944C76.3838 83.973 77.0598 84.1447 77.6299 84.488C78.1963 84.8176 78.6275 85.2639 78.9199 85.8304C79.2122 86.3832 79.3584 87.0355 79.3584 87.7943V118.131C79.3584 119.474 78.9747 120.504 78.2036 121.228C77.4362 121.953 76.4203 122.313 75.1559 122.313C73.9098 122.313 72.8939 121.942 72.1045 121.201C71.3152 120.462 70.9242 119.439 70.9242 118.131ZM46.2172 115.395C47.942 115.395 49.2612 114.694 50.1748 113.301C51.0921 111.889 51.6768 110.255 51.9362 108.398C52.2103 106.537 52.3455 104.731 52.3455 102.973C52.3455 101.15 52.2103 99.3166 51.9362 97.4763C51.6768 95.6326 51.0921 94.0258 50.1748 92.649C49.2795 91.2688 47.9603 90.5821 46.2172 90.5821C44.4777 90.5821 43.1512 91.2688 42.234 92.649C41.335 94.0258 40.7503 95.6326 40.4762 97.4763C40.2204 99.3166 40.0889 101.15 40.0889 102.973C40.0889 106.073 40.4945 108.923 41.2984 111.522C42.106 114.104 43.7468 115.395 46.2172 115.395ZM46.2172 122.649C42.6652 122.649 39.7709 121.668 37.5345 119.704C35.2998 117.743 33.6967 115.271 32.7257 112.295C31.7734 109.318 31.2969 106.211 31.2969 102.973C31.2969 100.618 31.5534 98.3106 32.0665 96.0549C32.5792 93.782 33.4219 91.6843 34.5946 89.7547C35.7669 87.8115 37.3152 86.263 39.2374 85.1094C41.1815 83.9387 43.5057 83.3516 46.2172 83.3516C48.947 83.3516 51.2675 83.9387 53.1714 85.1094C55.0936 86.263 56.632 87.8012 57.7868 89.7307C58.9599 91.6568 59.804 93.7649 60.3156 96.0549C60.8455 98.3449 61.1123 100.652 61.1123 102.973C61.1123 105.297 60.8455 107.615 60.3156 109.919C59.804 112.209 58.9708 114.317 57.8161 116.246C56.6613 118.172 55.1118 119.721 53.1714 120.892C51.2309 122.062 48.9104 122.649 46.2172 122.649ZM177.214 171.005V144.207H173.893C172.628 144.207 171.674 143.854 171.031 143.146C170.392 142.443 170.07 141.581 170.07 140.565C170.07 139.569 170.41 138.697 171.09 137.959C171.784 137.217 172.719 136.846 173.893 136.846H181.888C182.674 136.846 183.354 137.021 183.92 137.365C184.49 137.691 184.918 138.137 185.214 138.707C185.506 139.257 185.652 139.912 185.652 140.668V171.005C185.652 172.347 185.268 173.38 184.497 174.105C183.73 174.826 182.71 175.186 181.446 175.186C180.204 175.186 179.184 174.819 178.398 174.077C177.609 173.339 177.214 172.313 177.214 171.005ZM152.511 168.268C154.232 168.268 155.551 167.571 156.469 166.177C157.386 164.766 157.971 163.132 158.226 161.271C158.5 159.414 158.639 157.604 158.639 155.85C158.639 154.027 158.5 152.193 158.226 150.35C157.971 148.509 157.386 146.899 156.469 145.522C155.57 144.146 154.25 143.459 152.511 143.459C150.771 143.459 149.441 144.146 148.528 145.522C147.629 146.899 147.044 148.509 146.766 150.35C146.511 152.193 146.383 154.027 146.383 155.85C146.383 158.947 146.785 161.796 147.592 164.395C148.4 166.977 150.037 168.268 152.511 168.268ZM152.511 175.523C148.959 175.523 146.061 174.541 143.828 172.58C141.592 170.617 139.991 168.148 139.019 165.171C138.065 162.191 137.59 159.087 137.59 155.85C137.59 153.491 137.846 151.187 138.358 148.932C138.873 146.659 139.713 144.558 140.887 142.631C142.06 140.685 143.609 139.136 145.531 137.983C147.472 136.812 149.799 136.228 152.511 136.228C155.241 136.228 157.558 136.812 159.465 137.983C161.387 139.136 162.926 140.678 164.081 142.604C165.254 144.534 166.094 146.642 166.609 148.932C167.139 151.222 167.406 153.525 167.406 155.85C167.406 158.174 167.139 160.488 166.609 162.795C166.094 165.085 165.261 167.194 164.106 169.12C162.955 171.049 161.406 172.598 159.465 173.768C157.521 174.939 155.204 175.523 152.511 175.523ZM124.069 171.005V144.207H120.744C119.479 144.207 118.529 143.854 117.886 143.146C117.247 142.443 116.925 141.581 116.925 140.565C116.925 139.569 117.265 138.697 117.941 137.959C118.639 137.217 119.571 136.846 120.744 136.846H128.739C129.529 136.846 130.209 137.021 130.775 137.365C131.341 137.691 131.773 138.137 132.065 138.707C132.361 139.257 132.507 139.912 132.507 140.668V171.005C132.507 172.347 132.12 173.38 131.352 174.105C130.581 174.826 129.565 175.186 128.301 175.186C127.055 175.186 126.039 174.819 125.25 174.077C124.464 173.339 124.069 172.313 124.069 171.005ZM99.3659 168.268C101.087 168.268 102.406 167.571 103.324 166.177C104.237 164.766 104.825 163.132 105.081 161.271C105.355 159.414 105.494 157.604 105.494 155.85C105.494 154.027 105.355 152.193 105.081 150.35C104.825 148.509 104.237 146.899 103.324 145.522C102.425 144.146 101.105 143.459 99.3659 143.459C97.6228 143.459 96.2963 144.146 95.379 145.522C94.4837 146.899 93.8954 148.509 93.6213 150.35C93.3655 152.193 93.2376 154.027 93.2376 155.85C93.2376 158.947 93.6396 161.796 94.4472 164.395C95.2511 166.977 96.8919 168.268 99.3659 168.268ZM99.3659 175.523C95.8102 175.523 92.916 174.541 90.6795 172.58C88.4467 170.617 86.8425 168.148 85.8741 165.171C84.9203 162.191 84.4416 159.087 84.4416 155.85C84.4416 153.491 84.701 151.187 85.2126 148.932C85.7243 146.659 86.5684 144.558 87.7414 142.631C88.9145 140.685 90.4603 139.136 92.3861 137.983C94.3266 136.812 96.6544 136.228 99.3659 136.228C102.096 136.228 104.413 136.812 106.316 137.983C108.242 139.136 109.781 140.678 110.936 142.604C112.105 144.534 112.949 146.642 113.461 148.932C113.994 151.222 114.257 153.525 114.257 155.85C114.257 158.174 113.994 160.488 113.461 162.795C112.949 165.085 112.116 167.194 110.961 169.12C109.806 171.049 108.261 172.598 106.316 173.768C104.376 174.939 102.059 175.523 99.3659 175.523ZM67.0469 168.268C68.7718 168.268 70.091 167.571 71.0046 166.177C71.9218 164.766 72.5065 163.132 72.766 161.271C73.04 159.414 73.1752 157.604 73.1752 155.85C73.1752 154.027 73.04 152.193 72.766 150.35C72.5065 148.509 71.9218 146.899 71.0046 145.522C70.1093 144.146 68.79 143.459 67.0469 143.459C65.3075 143.459 63.9809 144.146 63.0637 145.522C62.1647 146.899 61.58 148.509 61.306 150.35C61.0501 152.193 60.9186 154.027 60.9186 155.85C60.9186 158.947 61.3242 161.796 62.1282 164.395C62.9358 166.977 64.5766 168.268 67.0469 168.268ZM67.0469 175.523C63.4949 175.523 60.6007 174.541 58.3642 172.58C56.1314 170.617 54.5272 168.148 53.5551 165.171C52.6013 162.191 52.1262 159.087 52.1262 155.85C52.1262 153.491 52.3821 151.187 52.8973 148.932C53.4089 146.659 54.2531 144.558 55.4261 142.631C56.5955 140.685 58.1449 139.136 60.0671 137.983C62.0112 136.812 64.3354 136.228 67.0469 136.228C69.7767 136.228 72.0972 136.812 74.0011 137.983C75.9233 139.136 77.4618 140.678 78.6166 142.604C79.7896 144.534 80.6338 146.642 81.1454 148.932C81.6752 151.222 81.942 153.525 81.942 155.85C81.942 158.174 81.6752 160.488 81.1454 162.795C80.6338 165.085 79.8006 167.194 78.6458 169.12C77.491 171.049 75.9416 172.598 74.0011 173.768C72.0607 174.939 69.7402 175.523 67.0469 175.523ZM38.6052 171.005V144.207H35.2816C34.0175 144.207 33.0648 143.854 32.4235 143.146C31.7825 142.443 31.4617 141.581 31.4617 140.565C31.4617 139.569 31.8008 138.697 32.4787 137.959C33.1748 137.217 34.1089 136.846 35.2816 136.846H43.2791C44.0648 136.846 44.7445 137.021 45.3109 137.365C45.881 137.691 46.3085 138.137 46.6045 138.707C46.8969 139.257 47.0431 139.912 47.0431 140.668V171.005C47.0431 172.347 46.6594 173.38 45.8883 174.105C45.1209 174.826 44.1013 175.186 42.8369 175.186C41.5944 175.186 40.5749 174.819 39.7892 174.077C38.9999 173.339 38.6052 172.313 38.6052 171.005Z" fill="#1A1C1D"/>
</svg>
