<?xml version="1.0" encoding="iso-8859-1"?>
<!-- Generator: Adobe Illustrator 19.0.0, SVG Export Plug-In . SVG Version: 6.00 Build 0)  -->
<svg version="1.1" id="Capa_1" xmlns="http://www.w3.org/2000/svg" xmlns:xlink="http://www.w3.org/1999/xlink" x="0px" y="0px"
	 viewBox="0 0 512 512" style="enable-background:new 0 0 512 512;" xml:space="preserve">
<g>
	<path style="fill:#7F6E5D;" d="M97.103,35.31H17.655C7.904,35.31,0,43.215,0,52.966V512h512V52.966
		c0-9.751-7.905-17.655-17.655-17.655H97.103z"/>
	<path style="fill:#CBB292;" d="M414.897,512H97.103V17.655C97.103,7.904,105.008,0,114.759,0h282.483
		c9.751,0,17.655,7.904,17.655,17.655V512z"/>
	<circle style="fill:#A5A5A4;" cx="256" cy="317.793" r="61.793"/>
	<path style="fill:#5E5F62;" d="M256,353.103c-14.628,0.014-27.747-9-32.977-22.661c-5.231-13.66-1.488-29.132,9.408-38.891
		c2.34-2.117,5.632-2.824,8.635-1.853c3.003,0.97,5.259,3.47,5.918,6.556c0.659,3.086-0.38,6.289-2.725,8.401
		c-5.472,4.873-7.365,12.619-4.758,19.467c2.607,6.848,9.173,11.373,16.5,11.373s13.893-4.526,16.5-11.373
		c2.607-6.848,0.714-14.594-4.758-19.467c-2.345-2.112-3.384-5.315-2.725-8.401c0.659-3.086,2.915-5.586,5.918-6.556
		c3.003-0.97,6.295-0.264,8.635,1.853c10.896,9.759,14.639,25.23,9.408,38.891C283.746,344.103,270.628,353.118,256,353.103z"/>
	<g>
		<path style="fill:#7F6E5D;" d="M185.379,185.379h141.241v17.655c0,9.751-7.905,17.655-17.655,17.655H203.034
			c-9.751,0-17.655-7.904-17.655-17.655V185.379z"/>
		<path style="fill:#7F6E5D;" d="M185.379,114.759h141.241v17.655c0,9.751-7.905,17.655-17.655,17.655H203.034
			c-9.751,0-17.655-7.904-17.655-17.655V114.759z"/>
	</g>
	<path style="fill:#24AE5F;" d="M185.379,44.138h141.241v17.655c0,9.751-7.905,17.655-17.655,17.655H203.034
		c-9.751,0-17.655-7.904-17.655-17.655V44.138z"/>
	<g>
		<path style="fill:#CC4B4C;" d="M273.655,432.552h-79.448c-4.875,0-8.828-3.952-8.828-8.828c0-4.875,3.952-8.828,8.828-8.828
			h79.448c4.875,0,8.828,3.952,8.828,8.828C282.483,428.599,278.531,432.552,273.655,432.552z"/>
		<path style="fill:#CC4B4C;" d="M317.793,432.552h-8.828c-4.875,0-8.828-3.952-8.828-8.828c0-4.875,3.952-8.828,8.828-8.828h8.828
			c4.875,0,8.828,3.952,8.828,8.828C326.621,428.599,322.668,432.552,317.793,432.552z"/>
	</g>
</g>
<g>
</g>
<g>
</g>
<g>
</g>
<g>
</g>
<g>
</g>
<g>
</g>
<g>
</g>
<g>
</g>
<g>
</g>
<g>
</g>
<g>
</g>
<g>
</g>
<g>
</g>
<g>
</g>
<g>
</g>
</svg>
