<?xml version="1.0" encoding="iso-8859-1"?>
<!-- Generator: Adobe Illustrator 19.0.0, SVG Export Plug-In . SVG Version: 6.00 Build 0)  -->
<svg version="1.1" id="Capa_1" xmlns="http://www.w3.org/2000/svg" xmlns:xlink="http://www.w3.org/1999/xlink" x="0px" y="0px"
	 viewBox="0 0 512 512" style="enable-background:new 0 0 512 512;" xml:space="preserve">
<g>
	<path style="fill:#527F72;" d="M8.828,0h494.345C508.048,0,512,3.952,512,8.828v494.345c0,4.875-3.952,8.828-8.828,8.828H8.828
		C3.952,512,0,508.048,0,503.172V8.828C0,3.952,3.952,0,8.828,0z"/>
	<path style="fill:#D1D4D1;" d="M441.379,114.759v88.276c0,4.875,3.952,8.828,8.828,8.828h17.655c4.875,0,8.828,3.952,8.828,8.828
		v70.621c0,4.875-3.952,8.828-8.828,8.828h-17.655c-4.875,0-8.828,3.952-8.828,8.828v88.276c0,4.875,3.952,8.828,8.828,8.828h17.655
		c4.875,0,8.828,3.952,8.828,8.828v52.966c0,4.875-3.952,8.828-8.828,8.828H353.103c-4.875,0-8.828-3.952-8.828-8.828v-17.655
		c0-4.875-3.952-8.828-8.828-8.828H176.552c-4.875,0-8.828,3.952-8.828,8.828v17.655c0,4.875-3.952,8.828-8.828,8.828H44.138
		c-4.875,0-8.828-3.952-8.828-8.828v-52.966c0-4.875,3.952-8.828,8.828-8.828h17.655c4.875,0,8.828-3.952,8.828-8.828v-88.276
		c0-4.875-3.952-8.828-8.828-8.828H44.138c-4.875,0-8.828-3.952-8.828-8.828V220.69c0-4.875,3.952-8.828,8.828-8.828h17.655
		c4.875,0,8.828-3.952,8.828-8.828v-88.276c0-4.875-3.952-8.828-8.828-8.828H44.138c-4.875,0-8.828-3.952-8.828-8.828V44.138
		c0-4.875,3.952-8.828,8.828-8.828h114.759c4.875,0,8.828,3.952,8.828,8.828v17.655c0,4.875,3.952,8.828,8.828,8.828h158.897
		c4.875,0,8.828-3.952,8.828-8.828V44.138c0-4.875,3.952-8.828,8.828-8.828h114.759c4.875,0,8.828,3.952,8.828,8.828v52.966
		c0,4.875-3.952,8.828-8.828,8.828h-17.655C445.332,105.931,441.379,109.883,441.379,114.759z"/>
	<g transform="matrix(0 1 -1 0 58 0)">
		<path style="fill:#95A5A5;" d="M132.414-348.069h247.172c14.626,0,26.483,11.857,26.483,26.483v247.172
			c0,14.626-11.857,26.483-26.483,26.483H132.414c-14.626,0-26.483-11.857-26.483-26.483v-247.172
			C105.931-336.212,117.788-348.069,132.414-348.069z"/>
		<path style="fill:#BDC3C7;" d="M167.724-348.069h176.552c14.626,0,26.483,11.857,26.483,26.483v247.172
			c0,14.626-11.857,26.483-26.483,26.483H167.724c-14.626,0-26.483-11.857-26.483-26.483v-247.172
			C141.241-336.212,153.098-348.069,167.724-348.069z"/>
	</g>
	<g>
		<path style="fill:#7F8C8D;" d="M256,256c-39.599,0-70.621-19.388-70.621-44.138s31.022-44.138,70.621-44.138
			s70.621,19.388,70.621,44.138S295.599,256,256,256z M256,185.379c-31.215,0-52.966,13.957-52.966,26.483
			c0,12.526,21.75,26.483,52.966,26.483s52.966-13.957,52.966-26.483C308.966,199.336,287.215,185.379,256,185.379z"/>
		<path style="fill:#7F8C8D;" d="M273.655,308.966h-79.448c-4.875,0-8.828-3.952-8.828-8.828s3.952-8.828,8.828-8.828h79.448
			c4.875,0,8.828,3.952,8.828,8.828S278.531,308.966,273.655,308.966z"/>
		<path style="fill:#7F8C8D;" d="M317.793,308.966h-8.828c-4.875,0-8.828-3.952-8.828-8.828s3.952-8.828,8.828-8.828h8.828
			c4.875,0,8.828,3.952,8.828,8.828S322.668,308.966,317.793,308.966z"/>
		<path style="fill:#7F8C8D;" d="M317.793,344.276H256c-4.875,0-8.828-3.952-8.828-8.828s3.952-8.828,8.828-8.828h61.793
			c4.875,0,8.828,3.952,8.828,8.828S322.668,344.276,317.793,344.276z"/>
		<path style="fill:#7F8C8D;" d="M220.69,344.276h-26.483c-4.875,0-8.828-3.952-8.828-8.828s3.952-8.828,8.828-8.828h26.483
			c4.875,0,8.828,3.952,8.828,8.828S225.565,344.276,220.69,344.276z"/>
	</g>
</g>
<g>
</g>
<g>
</g>
<g>
</g>
<g>
</g>
<g>
</g>
<g>
</g>
<g>
</g>
<g>
</g>
<g>
</g>
<g>
</g>
<g>
</g>
<g>
</g>
<g>
</g>
<g>
</g>
<g>
</g>
</svg>
