<?xml version="1.0" encoding="iso-8859-1"?>
<!-- Generator: Adobe Illustrator 19.0.0, SVG Export Plug-In . SVG Version: 6.00 Build 0)  -->
<svg version="1.1" id="Capa_1" xmlns="http://www.w3.org/2000/svg" xmlns:xlink="http://www.w3.org/1999/xlink" x="0px" y="0px"
	 viewBox="0 0 512 512" style="enable-background:new 0 0 512 512;" xml:space="preserve">
<g>
	<g>
		<path style="fill:#E4C05C;" d="M425.22,386.169h-26.034c-2.302,0.001-4.51-0.913-6.138-2.54c-1.628-1.628-2.542-3.836-2.54-6.138
			V342.78c0-4.793,3.885-8.678,8.678-8.678c4.793,0,8.678,3.885,8.678,8.678v26.034h17.356c4.793,0,8.678,3.885,8.678,8.678
			C433.898,382.284,430.013,386.169,425.22,386.169z"/>
		<path style="fill:#E4C05C;" d="M78.102,342.78h34.712v26.034c0,4.793-3.885,8.678-8.678,8.678H86.78
			c-4.793,0-8.678-3.885-8.678-8.678V342.78z"/>
		<path style="fill:#E4C05C;" d="M147.525,342.78h52.068v26.034c0,4.793-3.885,8.678-8.678,8.678h-34.712
			c-4.793,0-8.678-3.885-8.678-8.678V342.78z"/>
		<path style="fill:#E4C05C;" d="M234.305,342.78h130.169v26.034c0,4.793-3.885,8.678-8.678,8.678H242.983
			c-4.793,0-8.678-3.885-8.678-8.678V342.78z"/>
	</g>
	<path style="fill:#35495E;" d="M503.322,229.966l-17.356-52.068H512l-7.723-61.787c-0.536-4.344-4.215-7.613-8.591-7.637H43.39
		v242.983h452.296c4.376-0.023,8.055-3.293,8.591-7.637L512,282.034h-26.034L503.322,229.966z"/>
	<g>
		<polygon style="fill:#2C3E50;" points="503.322,229.966 485.966,282.034 433.898,351.458 312.407,351.458 260.339,282.034 
			248.797,247.322 242.983,229.966 248.797,212.61 260.339,177.898 312.407,108.475 433.898,108.475 485.966,177.898 		"/>
		<rect x="43.39" y="108.475" style="fill:#2C3E50;" width="34.712" height="242.983"/>
	</g>
	<circle style="fill:#BDC3C7;" cx="373.153" cy="229.966" r="60.746"/>
	<circle style="fill:#ECF0F1;" cx="373.153" cy="229.966" r="26.034"/>
	<g>
		<path style="fill:#3F5C6C;" d="M433.898,169.22c-1.138,0.028-2.267-0.21-3.297-0.695c-1.052-0.439-2.021-1.055-2.864-1.822
			c-1.633-1.632-2.54-3.852-2.517-6.161c0.03-2.298,0.929-4.499,2.517-6.161c2.048-2.034,4.975-2.914,7.805-2.347
			c0.576,0.085,1.134,0.262,1.653,0.525c0.534,0.171,1.033,0.435,1.475,0.78c0.498,0.299,0.964,0.648,1.391,1.042
			c1.584,1.664,2.483,3.864,2.517,6.161c0.022,2.308-0.885,4.529-2.517,6.161C438.427,168.336,436.207,169.243,433.898,169.22z"/>
		<path style="fill:#3F5C6C;" d="M433.898,308.068c-2.308,0.023-4.529-0.884-6.161-2.517c-0.765-0.845-1.381-1.813-1.822-2.864
			c-0.488-1.029-0.726-2.159-0.694-3.297c0.03-2.298,0.929-4.499,2.517-6.161c0.411-0.373,0.844-0.721,1.297-1.042
			c0.485-0.33,1.012-0.592,1.568-0.78c0.491-0.25,1.017-0.427,1.559-0.525c1.692-0.354,3.452-0.17,5.034,0.525
			c1.051,0.441,2.02,1.057,2.864,1.822c1.584,1.664,2.483,3.864,2.517,6.161c-0.02,2.3-0.92,4.505-2.517,6.161
			c-0.845,0.765-1.813,1.381-2.864,1.822C436.165,307.858,435.036,308.096,433.898,308.068z"/>
		<path style="fill:#3F5C6C;" d="M312.407,169.22c-1.138,0.028-2.267-0.21-3.297-0.695c-1.052-0.439-2.021-1.055-2.864-1.822
			c-2.485-2.483-3.207-6.229-1.822-9.458c0.419-1.063,1.037-2.035,1.822-2.864c0.411-0.373,0.844-0.721,1.297-1.042
			c0.485-0.33,1.012-0.592,1.568-0.78c0.491-0.25,1.017-0.427,1.559-0.525c1.692-0.349,3.451-0.166,5.034,0.525
			c0.534,0.171,1.033,0.435,1.475,0.78c0.498,0.299,0.964,0.648,1.39,1.042c1.584,1.664,2.483,3.864,2.517,6.161
			c0.02,2.308-0.887,4.527-2.517,6.161c-0.831,0.783-1.803,1.402-2.864,1.822C314.674,169.01,313.545,169.248,312.407,169.22z"/>
		<path style="fill:#3F5C6C;" d="M312.407,308.068c-2.308,0.022-4.529-0.885-6.161-2.517c-1.632-1.632-2.539-3.853-2.517-6.161
			c0-4.793,3.885-8.678,8.678-8.678c4.793,0,8.678,3.885,8.678,8.678c0.022,2.308-0.885,4.529-2.517,6.161
			C316.935,307.183,314.715,308.09,312.407,308.068z"/>
	</g>
	<polygon style="fill:#BDC3C7;" points="260.339,177.898 248.797,212.61 78.102,212.61 78.102,177.898 	"/>
	<polygon style="fill:#ECF0F1;" points="242.983,229.966 248.797,247.322 78.102,247.322 78.102,212.61 248.797,212.61 	"/>
	<polygon style="fill:#BDC3C7;" points="260.339,282.034 78.102,282.034 78.102,247.322 248.797,247.322 	"/>
	<g>
		<path style="fill:#3F5C6C;" d="M112.814,151.864c-1.134-0.014-2.254-0.25-3.297-0.695c-1.052-0.439-2.021-1.055-2.864-1.822
			c-0.765-0.845-1.381-1.813-1.822-2.864c-0.488-1.029-0.726-2.158-0.695-3.296c-0.082-3.533,2.075-6.734,5.381-7.983
			c2.093-0.958,4.5-0.958,6.593,0c1.051,0.441,2.02,1.057,2.864,1.822c1.599,1.654,2.5,3.86,2.517,6.161
			c0.004,2.305-0.9,4.518-2.517,6.161c-0.845,0.765-1.813,1.381-2.864,1.822C115.067,151.615,113.947,151.851,112.814,151.864z"/>
		<path style="fill:#3F5C6C;" d="M234.305,151.864c-1.134-0.014-2.254-0.25-3.297-0.695c-1.052-0.439-2.021-1.055-2.864-1.822
			c-1.633-1.632-2.54-3.852-2.517-6.161c0.014-0.582,0.071-1.163,0.169-1.737c0.098-0.543,0.275-1.068,0.525-1.559
			c0.187-0.556,0.45-1.083,0.78-1.568l1.042-1.297l1.297-1.042c0.485-0.33,1.012-0.592,1.568-0.78
			c0.491-0.25,1.017-0.427,1.559-0.525c1.113-0.254,2.269-0.254,3.381,0c0.576,0.085,1.134,0.262,1.653,0.525
			c0.553,0.187,1.078,0.45,1.559,0.78c0.432,0.347,0.873,0.695,1.305,1.042c1.599,1.654,2.501,3.86,2.517,6.161
			c-0.014,1.134-0.25,2.254-0.695,3.297c-0.79,2.18-2.507,3.896-4.686,4.686C236.559,151.614,235.439,151.85,234.305,151.864z"/>
		<path style="fill:#3F5C6C;" d="M112.814,325.424c-1.128,0.015-2.248-0.192-3.297-0.61c-1.071-0.479-2.042-1.155-2.865-1.991
			c-0.78-0.82-1.426-1.759-1.915-2.78c-0.415-1.049-0.62-2.169-0.601-3.297c0-4.793,3.885-8.678,8.678-8.678
			s8.678,3.885,8.678,8.678c-0.046,2.27-0.944,4.439-2.517,6.076C117.372,324.508,115.14,325.451,112.814,325.424z"/>
		<path style="fill:#3F5C6C;" d="M234.305,325.424c-1.128,0.015-2.248-0.192-3.297-0.61c-1.059-0.5-2.027-1.173-2.865-1.991
			c-0.782-0.8-1.4-1.744-1.822-2.78c-0.488-1.029-0.726-2.158-0.694-3.297c0-4.793,3.885-8.678,8.678-8.678s8.678,3.885,8.678,8.678
			C242.95,321.525,239.084,325.391,234.305,325.424z"/>
	</g>
	<path style="fill:#A5A5A4;" d="M43.39,412.203c-2.302,0.001-4.51-0.913-6.138-2.54c-1.628-1.628-2.542-3.836-2.54-6.138V117.153
		H8.678c-4.793,0-8.678-3.885-8.678-8.678s3.885-8.678,8.678-8.678H43.39c2.302-0.001,4.51,0.913,6.138,2.54
		c1.628,1.628,2.542,3.836,2.54,6.138v295.051c0.001,2.302-0.913,4.51-2.54,6.138C47.9,411.291,45.692,412.205,43.39,412.203z"/>
</g>
<g>
</g>
<g>
</g>
<g>
</g>
<g>
</g>
<g>
</g>
<g>
</g>
<g>
</g>
<g>
</g>
<g>
</g>
<g>
</g>
<g>
</g>
<g>
</g>
<g>
</g>
<g>
</g>
<g>
</g>
</svg>
