<?xml version="1.0" encoding="iso-8859-1"?>
<!-- Generator: Adobe Illustrator 19.0.0, SVG Export Plug-In . SVG Version: 6.00 Build 0)  -->
<svg version="1.1" id="Capa_1" xmlns="http://www.w3.org/2000/svg" xmlns:xlink="http://www.w3.org/1999/xlink" x="0px" y="0px"
	 viewBox="0 0 512 512" style="enable-background:new 0 0 512 512;" xml:space="preserve">
<g>
	<path style="fill:#BDC3C7;" d="M483.376,26.746C479.447,11.027,465.323,0,449.12,0H62.88C46.677,0,32.553,11.027,28.624,26.746
		L0,141.241v344.276C0,500.143,11.857,512,26.483,512h459.034C500.143,512,512,500.143,512,485.517V141.241L483.376,26.746z"/>
	<path style="fill:#95A5A5;" d="M0,141.241h512v344.276C512,500.143,500.143,512,485.517,512H26.483C11.857,512,0,500.143,0,485.517
		V141.241z"/>
	<path style="fill:#5E5F62;" d="M273.655,326.621c-0.132,47.226-29.064,89.592-73.004,106.902
		c-13.296,5.237-27.465,7.903-41.754,7.857c-25.22,0.03-49.742-8.289-69.738-23.658c-5.802-4.405-11.154-9.372-15.978-14.83
		c-26.644-29.894-35.748-71.529-24.011-109.815c2.114-7.03,4.923-13.831,8.386-20.303c18.878-35.611,55.085-58.676,95.338-60.734
		c2.03-0.088,3.972-0.177,6.003-0.177c5.435-0.02,10.864,0.364,16.243,1.148c47.276,6.763,85.422,42.097,95.779,88.717
		c1.646,7.244,2.534,14.641,2.648,22.069C273.655,324.767,273.655,325.65,273.655,326.621z"/>
	<circle style="fill:#A5A5A4;" cx="158.897" cy="326.621" r="79.448"/>
	<g>
		<path style="fill:#E6E7E8;" d="M167.548,303.139c-1.643,3.105-4.873,5.043-8.386,5.032c-1.534-0.004-3.045-0.367-4.414-1.059
			c-2.234-1.161-3.911-3.167-4.657-5.571c-0.746-2.404-0.5-5.007,0.685-7.229c2.648-5.032,24.452-48.905,2.119-82.273
			c2.03-0.088,3.972-0.177,6.003-0.177c5.435-0.02,10.864,0.364,16.243,1.148C192.353,251.763,172.314,294.135,167.548,303.139z"/>
		<path style="fill:#E6E7E8;" d="M138.681,323.884c-3.829,3.579-9.832,3.381-13.418-0.441c-6.356-6.709-38.488-39.018-76.094-30.367
			c2.114-7.03,4.923-13.831,8.386-20.303c41.843-2.56,74.77,30.279,81.567,37.694c1.723,1.837,2.644,4.284,2.561,6.8
			C141.601,319.784,140.521,322.164,138.681,323.884z"/>
		<path style="fill:#E6E7E8;" d="M148.657,352.662c-1.073,2.177-2.889,3.899-5.12,4.855c-5.208,2.03-48.993,20.833-54.378,60.204
			c-5.802-4.405-11.154-9.372-15.978-14.83c12.888-41.578,57.556-60.734,63.294-63.029c4.875-1.941,10.402,0.428,12.359,5.297
			C149.839,347.572,149.775,350.299,148.657,352.662z"/>
		<path style="fill:#E6E7E8;" d="M220.248,423.548c-6.195,3.951-12.758,7.292-19.597,9.975
			c-33.015-24.982-37.252-70.709-37.782-80.772l9.534-0.53h9.446C182.378,360.96,186.439,405.892,220.248,423.548z"/>
		<path style="fill:#E6E7E8;" d="M273.567,323.796c-15.12,9.528-32.716,14.38-50.582,13.948
			c-13.217-0.069-26.357-2.031-39.018-5.826c-4.997-1.603-7.76-6.943-6.18-11.948c1.579-5.005,6.906-7.792,11.918-6.237
			c8.739,2.825,52.966,14.83,81.214-12.006C272.565,308.971,273.452,316.368,273.567,323.796z"/>
	</g>
	<path style="fill:#5E5F62;" d="M467.862,229.517v55.262c0,4.214-1.508,8.29-4.25,11.49l-20.731,24.186
		c-3.354,3.913-8.251,6.165-13.405,6.165h-64.469c-5.154,0-10.051-2.252-13.405-6.165l-20.731-24.186
		c-2.743-3.2-4.25-7.275-4.25-11.49v-55.262c0-9.751,7.904-17.655,17.655-17.655h105.931
		C459.958,211.862,467.862,219.767,467.862,229.517z"/>
	<g>
		<path style="fill:#2C2F38;" d="M361.931,291.31c-2.341,0.001-4.587-0.929-6.243-2.585c-1.656-1.656-2.585-3.901-2.585-6.243
			v-8.828c0-4.875,3.952-8.828,8.828-8.828s8.828,3.952,8.828,8.828v8.828c0.001,2.341-0.929,4.587-2.585,6.243
			C366.518,290.381,364.272,291.311,361.931,291.31z"/>
		<path style="fill:#2C2F38;" d="M397.241,264.828c-2.341,0.001-4.587-0.929-6.243-2.585c-1.656-1.656-2.585-3.901-2.585-6.243
			v-8.828c0-4.875,3.952-8.828,8.828-8.828c4.875,0,8.828,3.952,8.828,8.828V256c0.001,2.341-0.929,4.587-2.585,6.243
			C401.828,263.898,399.583,264.828,397.241,264.828z"/>
		<path style="fill:#2C2F38;" d="M432.552,291.31c-2.341,0.001-4.587-0.929-6.243-2.585c-1.656-1.656-2.585-3.901-2.585-6.243
			v-8.828c0-4.875,3.952-8.828,8.828-8.828s8.828,3.952,8.828,8.828v8.828c0.001,2.341-0.929,4.587-2.585,6.243
			C437.139,290.381,434.893,291.311,432.552,291.31z"/>
	</g>
	<path style="fill:#14A085;" d="M397.241,361.931v88.276h-52.966c-9.739-0.029-17.626-7.916-17.655-17.655v-52.966
		c0.028-9.739,7.916-17.627,17.655-17.655H397.241z"/>
	<path style="fill:#CC4B4C;" d="M467.862,379.586v52.966c-0.029,9.739-7.916,17.626-17.655,17.655h-52.966v-88.276h52.966
		C459.946,361.96,467.834,369.847,467.862,379.586z"/>
	<path style="fill:#BDC3C7;" d="M361.931,423.724c-2.341,0.001-4.587-0.929-6.243-2.585c-1.656-1.656-2.585-3.901-2.585-6.243
		v-17.655c0-4.875,3.952-8.828,8.828-8.828s8.828,3.952,8.828,8.828v17.655c0.001,2.341-0.929,4.587-2.585,6.243
		C366.518,422.795,364.272,423.725,361.931,423.724z"/>
	<path style="fill:#2C2F38;" d="M432.552,414.897c-2.34-0.017-4.585-0.933-6.268-2.56c-0.779-0.859-1.406-1.844-1.854-2.914
		c-0.497-1.047-0.739-2.196-0.706-3.354c0.031-2.338,0.945-4.577,2.56-6.268c0.417-0.381,0.858-0.735,1.319-1.06
		c0.494-0.335,1.03-0.604,1.595-0.797c0.499-0.254,1.034-0.431,1.587-0.526c1.163-0.267,2.372-0.267,3.535,0
		c0.552,0.096,1.086,0.273,1.586,0.526c0.562,0.194,1.095,0.462,1.586,0.797c0.464,0.325,0.908,0.679,1.328,1.06
		c1.611,1.693,2.525,3.931,2.56,6.268c-0.014,1.153-0.254,2.293-0.707,3.353c-0.448,1.07-1.075,2.055-1.854,2.914
		C437.134,413.96,434.891,414.876,432.552,414.897z"/>
	<g>
		<circle style="fill:#E6E7E8;" cx="52.966" cy="459.034" r="17.655"/>
		<circle style="fill:#E6E7E8;" cx="52.966" cy="194.207" r="17.655"/>
		<circle style="fill:#E6E7E8;" cx="264.828" cy="194.207" r="17.655"/>
		<circle style="fill:#E6E7E8;" cx="264.828" cy="459.034" r="17.655"/>
	</g>
	<g>
		<ellipse style="fill:#BDC3C7;" cx="256" cy="70.621" rx="52.966" ry="26.483"/>
		<circle style="fill:#BDC3C7;" cx="158.897" cy="326.621" r="35.31"/>
	</g>
</g>
<g>
</g>
<g>
</g>
<g>
</g>
<g>
</g>
<g>
</g>
<g>
</g>
<g>
</g>
<g>
</g>
<g>
</g>
<g>
</g>
<g>
</g>
<g>
</g>
<g>
</g>
<g>
</g>
<g>
</g>
</svg>
