<?xml version="1.0" encoding="iso-8859-1"?>
<!-- Generator: Adobe Illustrator 19.0.0, SVG Export Plug-In . SVG Version: 6.00 Build 0)  -->
<svg version="1.1" id="Capa_1" xmlns="http://www.w3.org/2000/svg" xmlns:xlink="http://www.w3.org/1999/xlink" x="0px" y="0px"
	 viewBox="0 0 511.848 511.848" style="enable-background:new 0 0 511.848 511.848;" xml:space="preserve">
<g>
	<path style="fill:#71C285;" d="M312.103,37.452L349.555,0l43.694,43.694c-4.46,4.46-6.202,10.961-4.569,17.054
		c1.633,6.093,6.391,10.852,12.484,12.484c6.093,1.633,12.593-0.109,17.054-4.57l24.968,24.968c-6.895,6.895-6.895,18.073,0,24.968
		c6.895,6.895,18.073,6.895,24.968,0l43.694,43.694L162.293,511.848l-43.694-43.694c6.895-6.895,6.895-18.073,0-24.968
		c-6.895-6.895-18.073-6.895-24.968,0l-24.968-24.968c6.895-6.895,6.895-18.073,0-24.968c-6.895-6.895-18.073-6.895-24.968,0
		L0,349.555l37.452-37.452L312.103,37.452z"/>
	<polygon style="fill:#2C3E50;" points="424.443,199.78 199.781,424.443 199.692,424.443 62.423,287.085 287.085,62.423 	"/>
	<g>
		<path style="fill:#35495E;" d="M18.725,280.895l12.484-12.484c3.447-3.447,9.037-3.447,12.484,0l156.052,156.052l-24.968,24.968
			L18.725,293.379C15.278,289.932,15.278,284.342,18.725,280.895z"/>
		<path style="fill:#35495E;" d="M68.663,230.957l12.484-12.484c3.447-3.447,9.037-3.447,12.484,0l156.052,156.052l-24.968,24.968
			L68.663,243.441C65.215,239.994,65.215,234.405,68.663,230.957z"/>
		<path style="fill:#35495E;" d="M193.504,218.472l-49.936-49.936c-3.453-3.433-9.031-3.433-12.484,0l-12.484,12.484
			c-3.433,3.453-3.433,9.031,0,12.484l49.936,49.936l24.968,24.968l81.147,81.147l24.968-24.968l-56.179-56.179"/>
		<path style="fill:#35495E;" d="M268.408,243.44l56.179,56.179l24.968-24.968l-81.147-81.147l-24.968-24.968l-49.936-49.936
			c-3.453-3.433-9.031-3.433-12.484,0l-12.484,12.484c-3.433,3.453-3.433,9.031,0,12.484l49.936,49.936"/>
		<path style="fill:#35495E;" d="M218.476,81.143l12.484-12.484c3.447-3.447,9.037-3.447,12.484,0l156.052,156.052l-24.968,24.968
			L218.476,93.627C215.028,90.18,215.028,84.591,218.476,81.143z"/>
		<path style="fill:#35495E;" d="M268.413,31.214l12.484-12.484c3.447-3.447,9.037-3.447,12.484,0l156.052,156.052l-24.968,24.968
			L268.413,43.698C264.966,40.251,264.966,34.661,268.413,31.214z"/>
	</g>
	<polygon style="fill:#547580;" points="268.371,193.513 193.513,268.371 168.531,243.477 243.477,168.531 	"/>
	<polygon style="fill:#3F5C6C;" points="268.371,193.513 268.371,243.477 243.477,268.371 193.513,268.371 	"/>
	
		<rect x="144.6" y="469.204" transform="matrix(-0.7071 0.7071 -0.7071 -0.7071 621.2492 716.3851)" style="fill:#B19046;" width="35.31" height="35.31"/>
	
		<rect x="112.698" y="306.897" transform="matrix(-0.7071 0.7071 -0.7071 -0.7071 783.5375 324.5525)" style="fill:#E4C05C;" width="423.708" height="35.311"/>
	
		<rect x="469.196" y="144.632" transform="matrix(-0.7071 0.7071 -0.7071 -0.7071 945.8517 -67.2147)" style="fill:#B19046;" width="35.301" height="35.301"/>
</g>
<g>
</g>
<g>
</g>
<g>
</g>
<g>
</g>
<g>
</g>
<g>
</g>
<g>
</g>
<g>
</g>
<g>
</g>
<g>
</g>
<g>
</g>
<g>
</g>
<g>
</g>
<g>
</g>
<g>
</g>
</svg>
